<svg preserveAspectRatio="none" width="100%" height="100%" overflow="visible" style="display: block;" viewBox="0 0 27 27" fill="none" xmlns="http://www.w3.org/2000/svg">
<path id="Vector" d="M13.3333 0C5.97333 0 0 5.97333 0 13.3333C0 20.6933 5.97333 26.6667 13.3333 26.6667C20.6933 26.6667 26.6667 20.6933 26.6667 13.3333C26.6667 5.97333 20.6933 0 13.3333 0ZM13.3333 5.33333C15.9067 5.33333 18 7.42667 18 10C18 12.5733 15.9067 14.6667 13.3333 14.6667C10.76 14.6667 8.66667 12.5733 8.66667 10C8.66667 7.42667 10.76 5.33333 13.3333 5.33333ZM13.3333 24C10.6267 24 7.42667 22.9067 5.14667 20.16C7.4 18.4 10.24 17.3333 13.3333 17.3333C16.4267 17.3333 19.2667 18.4 21.52 20.16C19.24 22.9067 16.04 24 13.3333 24Z" fill="var(--fill-0, #3C3E3F)"/>
</svg>
