<svg preserveAspectRatio="none" width="100%" height="100%" overflow="visible" style="display: block;" viewBox="0 0 38 40" fill="none" xmlns="http://www.w3.org/2000/svg">
<path id="Union" d="M3.90723 6.14062C8.18422 0.866613 14.9603 -0.495483 21.4307 0.147461L21.4609 0.150391C26.9807 0.679718 32.4372 3.77408 34.8828 8.83496C37.1638 13.621 37.6212 19.607 36.8174 24.8311C35.6713 32.1973 31.5184 37.5936 24.0771 39.3652C19.5267 40.3954 14.117 40.2461 9.83105 38.3564C3.29324 35.4722 0.243641 29.0482 0.0566406 22.126C-0.202754 16.6142 0.320629 10.5508 3.90723 6.14062ZM28.626 3.56348C23.5766 0.645079 14.0618 0.712762 8.88477 3.36914C3.85475 5.91175 2.05742 11.8913 1.80762 17.1963C1.55145 23.0516 1.81235 30.2386 6.15625 34.6025C9.14104 37.5663 13.6021 38.3886 17.6582 38.5264C20.7344 38.589 23.9782 38.3489 26.8926 37.2109C33.867 34.5041 35.4269 26.4116 35.3174 19.7031V19.6729C35.256 13.8207 34.1338 6.74436 28.626 3.56348ZM19.5508 12.1914L24.9395 25.3828L28.9072 15.4492C29.4591 14.0578 29.276 12.8482 28.4609 12.4023V12.2441H32.3506V12.4023C31.7718 12.7425 31.1942 13.5054 30.5635 15.0557L24.0986 31.165H23.9678L18.4482 17.8408L12.8242 31.165H12.6943L6.01855 14.7148C5.46637 13.3739 5.02059 12.7172 4.41602 12.4023V12.2441H10.0908V12.4023C9.32942 12.8481 9.19752 13.7685 9.66992 15.0029L13.7441 25.3574L19.4209 12.1914H19.5508Z" fill="var(--fill-0, #00D875)"/>
</svg>
