<svg preserveAspectRatio="none" width="100%" height="100%" overflow="visible" style="display: block;" viewBox="0 0 107 107" fill="none" xmlns="http://www.w3.org/2000/svg">
<path id="Vector" d="M53.3346 0C67.4745 0.0149328 81.0315 5.63828 91.0299 15.6367C101.028 25.6351 106.652 39.1922 106.667 53.332V53.333C106.667 63.8813 103.539 74.1932 97.6784 82.9639C91.818 91.7343 83.4881 98.5698 73.7428 102.606C63.9975 106.643 53.2739 107.699 42.9284 105.642C32.5828 103.584 23.0795 98.5037 15.6207 91.0449C8.16226 83.5863 3.08295 74.0836 1.02504 63.7383C-1.03284 53.3926 0.0235251 42.6682 4.0602 32.9229C8.09685 23.1778 14.9324 14.8485 23.7028 8.98828C32.4734 3.12794 42.7853 0 53.3336 0H53.3346ZM53.3336 74.6543C48.1858 74.6543 43.1204 75.9506 38.6051 78.4229C34.4506 80.6977 30.8847 83.9016 28.1813 87.7773C35.4704 93.1133 44.2787 95.999 53.3336 95.999C62.3886 95.999 71.1968 93.1134 78.486 87.7773C75.7825 83.9015 72.2158 80.6977 68.0612 78.4229C63.546 75.9507 58.4813 74.6543 53.3336 74.6543ZM53.3336 10.6328C45.1076 10.6328 37.0569 13.0109 30.151 17.4805C23.2454 21.9499 17.7789 28.32 14.4098 35.8242C11.0407 43.3287 9.91266 51.6477 11.1618 59.7783C12.3263 67.3579 15.5101 74.4732 20.3649 80.3828C24.4565 74.9547 29.8281 70.625 35.9967 67.7803C32.7111 64.6965 30.2966 60.7822 29.0221 56.4326C27.5414 51.3794 27.6721 45.9901 29.3961 41.0146C31.1203 36.0391 34.3522 31.7236 38.6422 28.6699C42.9323 25.6162 48.0678 23.9756 53.3336 23.9756C58.5993 23.9756 63.7342 25.6164 68.0241 28.6699C72.3141 31.7236 75.546 36.039 77.2702 41.0146C78.9942 45.9901 79.1249 51.3793 77.6442 56.4326C76.3697 60.7821 73.956 64.6966 70.6706 67.7803C76.8391 70.625 82.2107 74.9547 86.3024 80.3828C91.1572 74.4732 94.341 67.3579 95.5055 59.7783C96.7546 51.6477 95.6265 43.3287 92.2575 35.8242C88.8885 28.32 83.4218 21.9499 76.5163 17.4805C69.6105 13.011 61.5596 10.6329 53.3336 10.6328ZM56.195 34.9482C53.3499 34.3823 50.4003 34.6731 47.7204 35.7832C45.0406 36.8933 42.7498 38.7728 41.1383 41.1846C39.5267 43.5965 38.6666 46.4322 38.6666 49.333C38.6666 53.2228 40.212 56.9536 42.9625 59.7041C45.7131 62.4546 49.4439 64 53.3336 64C56.2343 63.9999 59.0702 63.1399 61.4821 61.5283C63.894 59.9167 65.7734 57.6253 66.8834 54.9453C67.9934 52.2654 68.2843 49.3166 67.7184 46.4717C67.1525 43.6267 65.7558 41.0131 63.7047 38.9619C61.6536 36.9108 59.0399 35.5142 56.195 34.9482Z" fill="var(--fill-0, #3C3E3F)"/>
</svg>
