<svg preserveAspectRatio="none" width="100%" height="100%" overflow="visible" style="display: block;" viewBox="0 0 14 14" fill="none" xmlns="http://www.w3.org/2000/svg">
<path id="Vector" d="M6.66602 0C8.43345 0.00186654 10.1281 0.705353 11.3779 1.95508C12.6277 3.20488 13.3311 4.8995 13.333 6.66699L13.3281 6.91406C13.2824 8.14604 12.8957 9.34335 12.209 10.3711C11.4765 11.4672 10.4357 12.3216 9.21777 12.8262C7.9996 13.3308 6.65844 13.4623 5.36523 13.2051C4.07223 12.9478 2.88438 12.3131 1.95215 11.3809C1.01992 10.4486 0.38518 9.26084 0.12793 7.96777C-0.129273 6.67473 0.00240936 5.33426 0.506836 4.11621C1.01142 2.89804 1.86656 1.85657 2.96289 1.12402C4.0591 0.391621 5.34765 5.03588e-05 6.66602 0ZM6.66602 9.33203C6.02269 9.33207 5.38949 9.49379 4.8252 9.80273C4.30587 10.0871 3.86039 10.4882 3.52246 10.9727C4.4335 11.6395 5.53432 11.9999 6.66602 12C7.7979 12 8.89939 11.6397 9.81055 10.9727C9.47261 10.4882 9.02616 10.0871 8.50684 9.80273C7.94256 9.49389 7.30928 9.33203 6.66602 9.33203ZM6.66602 1.3291C5.63785 1.32915 4.63171 1.6269 3.76855 2.18555C2.90533 2.74424 2.22191 3.54046 1.80078 4.47852C1.37967 5.41656 1.2384 6.45635 1.39453 7.47266C1.54007 8.41997 1.93822 9.3092 2.54492 10.0479C3.05637 9.36938 3.72799 8.82824 4.49902 8.47266C4.08845 8.08725 3.78625 7.59825 3.62695 7.05469C3.44186 6.42301 3.45831 5.7489 3.67383 5.12695C3.88935 4.50503 4.29384 3.96568 4.83008 3.58398C5.36622 3.20241 6.00795 2.99712 6.66602 2.99707C7.32425 2.99707 7.96668 3.20227 8.50293 3.58398C9.03906 3.96565 9.44268 4.50514 9.6582 5.12695C9.87372 5.7489 9.89017 6.42301 9.70508 7.05469C9.54574 7.59829 9.24365 8.08725 8.83301 8.47266C9.60395 8.82819 10.2757 9.36949 10.7871 10.0479C11.3939 9.30917 11.7919 8.42005 11.9375 7.47266C12.0936 6.45641 11.9533 5.41651 11.5322 4.47852C11.1111 3.54058 10.4275 2.74423 9.56445 2.18555C8.70122 1.62686 7.69427 1.3291 6.66602 1.3291ZM7.02441 4.36914C6.66878 4.2984 6.29984 4.33487 5.96484 4.47363C5.62985 4.61239 5.34305 4.84695 5.1416 5.14844C4.94021 5.4499 4.83301 5.80445 4.83301 6.16699C4.83301 6.65316 5.02638 7.11909 5.37012 7.46289C5.71387 7.80665 6.17988 7.99993 6.66602 8C7.02854 8 7.38312 7.89277 7.68457 7.69141C7.98606 7.48996 8.22159 7.20316 8.36035 6.86816C8.49891 6.53339 8.53546 6.16494 8.46484 5.80957C8.39414 5.45411 8.21909 5.12744 7.96289 4.87109C7.70662 4.61482 7.37985 4.43995 7.02441 4.36914Z" fill="var(--fill-0, #3C3E3F)"/>
</svg>
