<svg preserveAspectRatio="none" width="100%" height="100%" overflow="visible" style="display: block;" viewBox="0 0 27 27" fill="none" xmlns="http://www.w3.org/2000/svg">
<path id="Vector" d="M13.6647 0.00390625C17.0797 0.0921423 20.336 1.4877 22.7575 3.90918C25.257 6.40878 26.6629 9.7981 26.6667 13.333L26.6579 13.8271C26.5665 16.291 25.7929 18.6848 24.4196 20.7402C22.9546 22.9328 20.8724 24.6422 18.4362 25.6514C15.9998 26.6605 13.3185 26.9246 10.7321 26.4102C8.1457 25.8957 5.76964 24.6254 3.90495 22.7607C2.04052 20.8962 0.770998 18.5207 0.256508 15.9346C-0.257962 13.3482 0.00612836 10.6668 1.0153 8.23047C2.02442 5.79434 3.73303 3.7121 5.92545 2.24707C8.11811 0.781985 10.6966 0 13.3337 0L13.6647 0.00390625ZM13.3337 18.6631C12.0467 18.6631 10.7799 18.9874 9.65104 19.6055C8.61248 20.1742 7.72138 20.9755 7.04557 21.9443C8.8678 23.2782 11.07 24 13.3337 24C15.5973 23.9999 17.7995 23.2783 19.6217 21.9443C18.9459 20.9754 18.054 20.1742 17.0153 19.6055C15.8866 18.9875 14.6205 18.6631 13.3337 18.6631ZM13.3337 2.6582C11.2772 2.6582 9.26422 3.25273 7.53776 4.37012C5.81136 5.4875 4.44446 7.07999 3.60221 8.95605C2.76 10.8321 2.47842 12.9117 2.79069 14.9443C3.08181 16.8392 3.87779 18.6183 5.09147 20.0957C6.11427 18.7388 7.45675 17.6565 8.9987 16.9453C8.17728 16.1744 7.57416 15.1948 7.25553 14.1074C6.88548 12.8442 6.91829 11.4967 7.34928 10.2529C7.78036 9.00919 8.58841 7.93034 9.6608 7.16699C10.7333 6.40369 12.0173 5.99316 13.3337 5.99316C14.65 5.99323 15.9341 6.40363 17.0065 7.16699C18.0789 7.93037 18.887 9.00916 19.318 10.2529C19.749 11.4967 19.7809 12.8442 19.4108 14.1074C19.0922 15.1949 18.4891 16.1744 17.6676 16.9453C19.2097 17.6565 20.553 18.7387 21.5758 20.0957C22.7895 18.6183 23.5855 16.8392 23.8766 14.9443C24.1889 12.9117 23.9064 10.8322 23.0641 8.95605C22.2219 7.07994 20.855 5.4875 19.1286 4.37012C17.4022 3.25284 15.39 2.65826 13.3337 2.6582ZM14.0485 8.73633C13.3374 8.59493 12.6002 8.66789 11.9303 8.94531C11.2604 9.22282 10.6877 9.69297 10.2848 10.2959C9.88193 10.8989 9.66666 11.6078 9.66666 12.333C9.66666 13.3055 10.0532 14.2381 10.7409 14.9258C11.4285 15.6133 12.3613 16 13.3337 16C14.0587 15.9999 14.7679 15.7847 15.3708 15.3818C15.9737 14.9789 16.4439 14.4063 16.7214 13.7363C16.9988 13.0665 17.0707 12.3293 16.9294 11.6182C16.7879 10.907 16.4391 10.253 15.9264 9.74023C15.4136 9.22744 14.7598 8.87781 14.0485 8.73633Z" fill="var(--fill-0, #3C3E3F)"/>
</svg>
