<svg preserveAspectRatio="none" width="100%" height="100%" overflow="visible" style="display: block;" viewBox="0 0 20 20" fill="none" xmlns="http://www.w3.org/2000/svg">
<path id="Vector" d="M10 0C12.6512 0.0027999 15.1937 1.05693 17.0684 2.93164C18.9431 4.80635 19.9972 7.34876 20 10L19.9932 10.3701C19.9247 12.2183 19.3446 14.0139 18.3145 15.5557C17.2157 17.2001 15.6543 18.4824 13.8271 19.2393C11.9999 19.9961 9.98864 20.1935 8.04883 19.8076C6.10914 19.4217 4.32716 18.4697 2.92871 17.0713C1.53026 15.6728 0.578274 13.8909 0.192383 11.9512C-0.193469 10.0114 0.00386584 8.00011 0.760742 6.17285C1.51761 4.34567 2.79992 2.78434 4.44434 1.68555C6.08883 0.586733 8.02219 7.54377e-07 10 0ZM10 13.998C9.03479 13.998 8.08489 14.2405 7.23828 14.7041C6.45941 15.1306 5.79104 15.7314 5.28418 16.458C6.6509 17.4585 8.3022 18 10 18C11.6978 18 13.3491 17.4585 14.7158 16.458C14.209 15.7314 13.5406 15.1306 12.7617 14.7041C11.9151 14.2405 10.9652 13.998 10 13.998ZM10 1.99414C8.45767 1.99414 6.94814 2.43936 5.65332 3.27734C4.35862 4.11529 3.33387 5.30991 2.70215 6.7168C2.07051 8.12375 1.85867 9.68365 2.09277 11.208C2.31111 12.6292 2.90808 13.9642 3.81836 15.0723C4.58548 14.0546 5.59253 13.2424 6.74902 12.709C6.13302 12.1308 5.68036 11.3966 5.44141 10.5811C5.16384 9.63366 5.18853 8.62325 5.51172 7.69043C5.83495 6.75764 6.44091 5.94853 7.24512 5.37598C8.0495 4.80341 9.01265 4.49512 10 4.49512C10.9874 4.49512 11.9505 4.80341 12.7549 5.37598C13.5591 5.94853 14.165 6.75764 14.4883 7.69043C14.8115 8.62325 14.8362 9.63366 14.5586 10.5811C14.3196 11.3966 13.867 12.1308 13.251 12.709C14.4075 13.2424 15.4145 14.0546 16.1816 15.0723C17.0919 13.9642 17.6889 12.6292 17.9072 11.208C18.1413 9.68365 17.9295 8.12375 17.2979 6.7168C16.6661 5.30991 15.6414 4.11529 14.3467 3.27734C13.0519 2.43936 11.5423 1.99414 10 1.99414ZM10.5361 6.55273C10.0028 6.44673 9.44965 6.50089 8.94727 6.70898C8.44485 6.91714 8.016 7.27048 7.71387 7.72266C7.41175 8.17486 7.25 8.70616 7.25 9.25C7.25 9.97934 7.53994 10.6786 8.05566 11.1943C8.57139 11.7101 9.27066 12 10 12C10.5438 12 11.0751 11.8382 11.5273 11.5361C11.9795 11.234 12.3329 10.8052 12.541 10.3027C12.7491 9.80035 12.8033 9.2472 12.6973 8.71387C12.5912 8.18042 12.3289 7.69026 11.9443 7.30566C11.5597 6.92107 11.0696 6.65884 10.5361 6.55273Z" fill="var(--fill-0, black)"/>
</svg>
