<svg preserveAspectRatio="none" width="100%" height="100%" overflow="visible" style="display: block;" viewBox="0 0 54 54" fill="none" xmlns="http://www.w3.org/2000/svg">
<path id="Vector" d="M26.6673 0C33.7373 0.0074664 40.5158 2.82012 45.515 7.81934C50.5139 12.8185 53.3258 19.5963 53.3334 26.666V26.667C53.3334 31.9412 51.7694 37.0971 48.8392 41.4824C45.909 45.8677 41.7441 49.2854 36.8714 51.3037C31.9988 53.322 26.637 53.8502 21.4642 52.8213C16.2916 51.7924 11.5402 49.2526 7.81089 45.5234C4.08149 41.794 1.541 37.042 0.512061 31.8691C-0.516794 26.6964 0.0113434 21.3345 2.02964 16.4619C4.04798 11.5893 7.46662 7.4243 11.8519 4.49414C16.237 1.56423 21.3925 5.77792e-05 26.6664 0H26.6673ZM26.6664 37.3281C24.0927 37.3282 21.5605 37.9759 19.3031 39.2119C17.2258 40.3493 15.4419 41.9508 14.0902 43.8887C17.7347 46.5567 22.1389 47.9999 26.6664 48C31.1939 48 35.5979 46.5567 39.2425 43.8887C37.8908 41.9509 36.1078 40.3493 34.0306 39.2119C31.773 37.9758 29.2402 37.3281 26.6664 37.3281ZM26.6664 5.31641C22.5535 5.31646 18.5283 6.50562 15.0755 8.74023C11.6226 10.975 8.88898 14.1609 7.20444 17.9131C5.52002 21.6652 4.95589 25.8244 5.58042 29.8896C6.16263 33.6793 7.75477 37.2367 10.182 40.1914C12.2278 37.4774 14.9141 35.313 17.9984 33.8906C16.3556 32.3488 15.1484 30.3916 14.5111 28.2168C13.7707 25.6901 13.8365 22.9956 14.6986 20.5078C15.5607 18.02 17.1766 15.8628 19.3216 14.3359C21.4665 12.8092 24.0336 11.9883 26.6664 11.9883C29.2993 11.9883 31.867 12.8091 34.0121 14.3359C36.157 15.8628 37.773 18.0201 38.6351 20.5078C39.4971 22.9956 39.5629 25.6902 38.8226 28.2168C38.1854 30.3916 36.9781 32.3488 35.3353 33.8906C38.4194 35.3129 41.105 37.4775 43.1507 40.1914C45.5781 37.2366 47.1701 33.6794 47.7523 29.8896C48.3768 25.8244 47.8128 21.6653 46.1283 17.9131C44.4437 14.1609 41.7111 10.975 38.2582 8.74023C34.8052 6.50547 30.7794 5.31641 26.6664 5.31641ZM28.097 17.4746C26.6747 17.1918 25.2005 17.3367 23.8607 17.8916C22.5208 18.4466 21.3755 19.3869 20.5697 20.5928C19.7639 21.7987 19.3334 23.2166 19.3334 24.667C19.3334 26.6118 20.1056 28.4773 21.4808 29.8525C22.856 31.2277 24.7215 31.9999 26.6664 32C28.1166 32 29.5347 31.5703 30.7406 30.7646C31.9465 29.9589 32.8867 28.8135 33.4417 27.4736C33.9968 26.1336 34.1417 24.6589 33.8587 23.2363C33.5758 21.8138 32.8775 20.507 31.8519 19.4814C30.8263 18.4559 29.5195 17.7576 28.097 17.4746Z" fill="var(--fill-0, #3C3E3F)"/>
</svg>
