<svg preserveAspectRatio="none" width="100%" height="100%" overflow="visible" style="display: block;" viewBox="0 0 14 14" fill="none" xmlns="http://www.w3.org/2000/svg">
<g id="Vector">
<mask id="path-1-inside-1_40001318_3448" fill="white">
<path d="M6.66667 0C2.98667 0 0 2.98667 0 6.66667C0 10.3467 2.98667 13.3333 6.66667 13.3333C10.3467 13.3333 13.3333 10.3467 13.3333 6.66667C13.3333 2.98667 10.3467 0 6.66667 0ZM6.66667 12C3.72 12 1.33333 9.61333 1.33333 6.66667C1.33333 3.72 3.72 1.33333 6.66667 1.33333C9.61333 1.33333 12 3.72 12 6.66667C12 9.61333 9.61333 12 6.66667 12Z"/>
</mask>
<path d="M6.66667 0C2.98667 0 0 2.98667 0 6.66667C0 10.3467 2.98667 13.3333 6.66667 13.3333C10.3467 13.3333 13.3333 10.3467 13.3333 6.66667C13.3333 2.98667 10.3467 0 6.66667 0ZM6.66667 12C3.72 12 1.33333 9.61333 1.33333 6.66667C1.33333 3.72 3.72 1.33333 6.66667 1.33333C9.61333 1.33333 12 3.72 12 6.66667C12 9.61333 9.61333 12 6.66667 12Z" fill="var(--fill-0, white)"/>
<path d="M6.66667 0V-2C1.8821 -2 -2 1.8821 -2 6.66667H0H2C2 4.09124 4.09124 2 6.66667 2V0ZM0 6.66667H-2C-2 11.4512 1.8821 15.3333 6.66667 15.3333V13.3333V11.3333C4.09124 11.3333 2 9.2421 2 6.66667H0ZM6.66667 13.3333V15.3333C11.4512 15.3333 15.3333 11.4512 15.3333 6.66667H13.3333H11.3333C11.3333 9.2421 9.2421 11.3333 6.66667 11.3333V13.3333ZM13.3333 6.66667H15.3333C15.3333 1.8821 11.4512 -2 6.66667 -2V0V2C9.2421 2 11.3333 4.09124 11.3333 6.66667H13.3333ZM6.66667 12V10C4.82457 10 3.33333 8.50876 3.33333 6.66667H1.33333H-0.666667C-0.666667 10.7179 2.61543 14 6.66667 14V12ZM1.33333 6.66667H3.33333C3.33333 4.82457 4.82457 3.33333 6.66667 3.33333V1.33333V-0.666667C2.61543 -0.666667 -0.666667 2.61543 -0.666667 6.66667H1.33333ZM6.66667 1.33333V3.33333C8.50876 3.33333 10 4.82457 10 6.66667H12H14C14 2.61543 10.7179 -0.666667 6.66667 -0.666667V1.33333ZM12 6.66667H10C10 8.50876 8.50876 10 6.66667 10V12V14C10.7179 14 14 10.7179 14 6.66667H12Z" fill="var(--stroke-0, #DADCDD)" mask="url(#path-1-inside-1_40001318_3448)"/>
</g>
</svg>
