<svg preserveAspectRatio="none" width="100%" height="100%" overflow="visible" style="display: block;" viewBox="0 0 14 14" fill="none" xmlns="http://www.w3.org/2000/svg">
<g id="Vector">
<path d="M6.66667 0C2.98667 0 0 2.98667 0 6.66667C0 10.3467 2.98667 13.3333 6.66667 13.3333C10.3467 13.3333 13.3333 10.3467 13.3333 6.66667C13.3333 2.98667 10.3467 0 6.66667 0ZM6.66667 12C3.72 12 1.33333 9.61333 1.33333 6.66667C1.33333 3.72 3.72 1.33333 6.66667 1.33333C9.61333 1.33333 12 3.72 12 6.66667C12 9.61333 9.61333 12 6.66667 12Z" fill="var(--fill-0, #0C2855)"/>
<path d="M6.66667 10C8.50762 10 10 8.50762 10 6.66667C10 4.82572 8.50762 3.33333 6.66667 3.33333C4.82572 3.33333 3.33333 4.82572 3.33333 6.66667C3.33333 8.50762 4.82572 10 6.66667 10Z" fill="var(--fill-0, #0C2855)"/>
</g>
</svg>
