<svg preserveAspectRatio="none" width="100%" height="100%" overflow="visible" style="display: block;" viewBox="0 0 91 19" fill="none" xmlns="http://www.w3.org/2000/svg">
<path id="Vector" d="M19.4705 18.97H19.6214L26.0361 2.88344C26.6398 1.36584 27.2436 0.607039 27.8473 0.227639V0.0758803H23.9985V0.227639C24.8286 0.682919 24.9795 1.897 24.4513 3.26284L20.527 13.2031L15.0934 0H14.9424L9.28243 13.1272L5.20722 2.80756C4.75441 1.59348 4.82988 0.682919 5.66002 0.227639V0.0758803H0V0.227639C0.603735 0.531159 1.05654 1.21408 1.5848 2.50404L8.30136 18.97H8.45229L14.0368 5.61512L19.4705 18.97ZM61.1282 9.71264V4.5528H66.5618C69.0522 4.5528 69.9578 4.9322 70.8634 6.22216L71.0144 6.14628L70.7125 3.26284H57.1284V3.4146C57.9586 3.94576 58.185 4.62868 58.185 5.691V16.0107C58.185 17.073 57.9586 17.8318 57.1284 18.2871V18.4388H71.3917L71.92 15.3278L71.769 15.2519C70.8634 16.466 69.7314 17.1489 67.3165 17.1489H61.1282V11.0026H65.2789C67.0901 11.0026 67.9202 11.3061 68.4485 12.0649H68.5994V8.7262H68.4485C67.9957 9.485 67.0901 9.78852 65.2789 9.78852H61.1282V9.71264ZM79.3157 18.2871V18.4388H84.5229V18.2871C83.6928 17.7559 83.3909 16.9971 83.3909 15.7072V12.1408L87.9944 5.53924C88.8246 4.32516 89.5038 3.56636 90.1075 3.33872V3.18696H86.0323V3.33872C86.7869 3.794 86.8624 4.78044 86.1077 5.91864L82.7117 10.775L79.0893 5.3116C78.4856 4.47692 78.6365 3.71812 79.3157 3.33872V3.18696H73.5802V3.33872C74.2594 3.64224 74.7122 4.02164 75.3914 5.08396L80.4477 12.3684V15.7072C80.5232 16.9971 80.2213 17.7559 79.3157 18.2871ZM54.1098 18.4388L54.8644 15.2519L54.7135 15.176C53.8079 16.5418 52.4495 17.1489 50.4874 17.1489H44.6009V5.91864C44.6009 4.62868 44.9028 3.86988 45.8084 3.33872V3.18696H40.6012V3.33872C41.4313 3.86988 41.6577 4.5528 41.6577 5.61512V15.9348C41.6577 16.9971 41.4313 17.7559 40.6012 18.2112V18.363H54.1098V18.4388ZM31.0924 15.8589C31.0924 17.073 30.866 17.8318 29.9604 18.2871V18.4388H35.1676V18.2871C34.3374 17.8318 34.0356 17.073 34.0356 15.8589V5.76688C34.0356 4.62868 34.262 3.86988 35.1676 3.33872V3.18696H30.0358V3.33872C30.866 3.86988 31.1678 4.62868 31.1678 5.76688V15.8589H31.0924Z" fill="var(--fill-0, #1C1D1E)"/>
</svg>
