<svg preserveAspectRatio="xMidYMid meet" width="100%" height="100%" overflow="visible" style="display: block;" viewBox="0 0 30 32" fill="none" xmlns="http://www.w3.org/2000/svg">
<path id="Union" d="M3.1256 4.91321C6.54725 0.693635 11.9686 -0.396115 17.1451 0.11829L17.1686 0.120243C21.5845 0.543599 25.9503 3.01963 27.9069 7.06848C29.7317 10.8973 30.0968 15.6861 29.4537 19.8654C28.5369 25.7584 25.2154 30.076 19.2623 31.4933C15.6218 32.3175 11.2937 32.1975 7.86486 30.6857C2.63463 28.3782 0.195124 23.2391 0.045523 17.7013C-0.161976 13.2918 0.256325 8.44137 3.1256 4.91321ZM22.901 2.85169C18.8614 0.516933 11.2497 0.571262 7.10802 2.69641C3.0843 4.73056 1.64581 9.51309 1.44591 13.757C1.24095 18.4414 1.45015 24.1915 4.92541 27.6827C7.31317 30.0537 10.8818 30.7121 14.1266 30.8224C16.5875 30.8725 19.1827 30.68 21.5143 29.7697C27.0942 27.6042 28.3422 21.1298 28.2545 15.7628V15.7384C28.2054 11.0567 27.3073 5.39637 22.901 2.85169ZM15.6412 9.75306L19.9518 20.3077L23.1266 12.3605C23.5682 11.2472 23.4212 10.2797 22.7692 9.92298V9.79602H25.8815V9.92298C25.4184 10.1951 24.9554 10.8048 24.4508 12.045L19.2799 24.9327H19.1744L14.7594 14.2736L10.2604 24.9327H10.1559L4.81505 11.7726C4.37329 10.6998 4.01652 10.1748 3.53283 9.92298V9.79602H8.07287V9.92298C7.46385 10.2796 7.35903 11.0156 7.73693 12.0031L10.9957 20.2872L15.5377 9.75306H15.6412Z" fill="var(--fill-0, #003B44)"/>
</svg>
