<svg preserveAspectRatio="xMidYMid meet" width="100%" height="100%" overflow="visible" style="display: block;" viewBox="0 0 30 32" fill="none" xmlns="http://www.w3.org/2000/svg">
<g id="Frame 1">
<path id="Union" d="M3.12598 4.91309C6.54763 0.693509 11.969 -0.39624 17.1455 0.118164L17.1689 0.120117C21.5849 0.543474 25.9507 3.01951 27.9072 7.06836C29.7321 10.8972 30.0972 15.686 29.4541 19.8652C28.5373 25.7583 25.2157 30.0758 19.2627 31.4932C15.6222 32.3173 11.2941 32.1974 7.86523 30.6855C2.635 28.3781 0.195499 23.239 0.0458984 17.7012C-0.161601 13.2917 0.2567 8.44124 3.12598 4.91309ZM22.9014 2.85156C18.8618 0.516807 11.2501 0.571137 7.1084 2.69629C3.08467 4.73043 1.64619 9.51296 1.44629 13.7568C1.24133 18.4412 1.45053 24.1914 4.92578 27.6826C7.31355 30.0536 10.8821 30.712 14.127 30.8223C16.5879 30.8723 19.1831 30.6799 21.5146 29.7695C27.0946 27.6041 28.3426 21.1296 28.2549 15.7627V15.7383C28.2057 11.0565 27.3077 5.39624 22.9014 2.85156ZM15.6416 9.75293L19.9521 20.3076L23.127 12.3604C23.5685 11.2471 23.4216 10.2795 22.7695 9.92285V9.7959H25.8818V9.92285C25.4188 10.195 24.9558 10.8047 24.4512 12.0449L19.2803 24.9326H19.1748L14.7598 14.2734L10.2607 24.9326H10.1562L4.81543 11.7725C4.37366 10.6996 4.01689 10.1747 3.5332 9.92285V9.7959H8.07324V9.92285C7.46422 10.2795 7.3594 11.0155 7.7373 12.0029L10.9961 20.2871L15.5381 9.75293H15.6416Z" fill="var(--fill-0, #00D875)"/>
</g>
</svg>
