<?xml version="1.0" encoding="UTF-8"?>
<svg id="Layer_1" xmlns="http://www.w3.org/2000/svg" xmlns:xlink="http://www.w3.org/1999/xlink" version="1.1" viewBox="0 0 96.29 32.4">
  <!-- Generator: Adobe Illustrator 30.0.0, SVG Export Plug-In . SVG Version: 2.1.1 Build 123)  -->
  <defs>
    <style>
      .st0 {
        fill: url(#linear-gradient);
      }

      .st1 {
        fill: #fff;
      }
    </style>
    <linearGradient id="linear-gradient" x1="16.77" y1="34.03" x2="16.77" y2="2.08" gradientTransform="translate(0 34.03) scale(1 -1)" gradientUnits="userSpaceOnUse">
      <stop offset="0" stop-color="#f5940b"/>
      <stop offset=".65" stop-color="#f7a32e"/>
      <stop offset="1" stop-color="#f2cc96"/>
    </linearGradient>
  </defs>
  <path class="st0" d="M16.81,31.95c-2.42,0-4.67-.4-6.74-1.19-2.04-.79-3.82-1.91-5.34-3.35-1.49-1.44-2.66-3.13-3.5-5.08-.82-1.94-1.23-4.06-1.23-6.36s.41-4.41,1.23-6.36c.85-1.94,2.03-3.63,3.55-5.08,1.52-1.44,3.3-2.56,5.34-3.35,2.04-.79,4.26-1.19,6.66-1.19s4.64.4,6.66,1.19c2.04.79,3.81,1.91,5.3,3.35,1.52,1.44,2.7,3.13,3.55,5.08.85,1.91,1.27,4.03,1.27,6.36s-.42,4.43-1.27,6.4c-.85,1.94-2.03,3.63-3.55,5.08-1.49,1.41-3.25,2.52-5.3,3.31-2.01.79-4.22,1.19-6.61,1.19ZM16.77,25.86c1.37,0,2.63-.24,3.77-.71,1.17-.47,2.19-1.15,3.07-2.03.88-.88,1.55-1.93,2.01-3.13.5-1.21.74-2.55.74-4.02s-.25-2.81-.74-4.02c-.47-1.21-1.14-2.25-2.01-3.13-.85-.88-1.85-1.56-3.02-2.03-1.17-.47-2.44-.71-3.81-.71s-2.64.24-3.81.71c-1.14.47-2.15,1.15-3.02,2.03-.88.88-1.56,1.93-2.06,3.13-.47,1.21-.7,2.55-.7,4.02s.23,2.78.7,4.02c.5,1.21,1.17,2.25,2.01,3.13.88.88,1.9,1.56,3.07,2.03,1.17.47,2.44.71,3.81.71Z"/>
  <path class="st1" d="M28.67,32.03V6.16h-10.13V.14h27.57v6.01h-10.13v25.88h-7.32Z"/>
  <path class="st1" d="M94.61,13.08c-1.11-1.91-2.63-3.37-4.56-4.37-1.9-1.03-4.04-1.55-6.42-1.55s-4.68.55-6.64,1.64c-1.96,1.06-3.51,2.55-4.66,4.47-1.11,1.88-1.67,4.05-1.67,6.51s.57,4.6,1.72,6.52c1.14,1.88,2.75,3.37,4.83,4.46,2.11,1.09,4.55,1.64,7.32,1.64,2.2,0,4.15-.33,5.84-1,1.68-.7,3.08-1.69,4.2-2.96l-3.75-4.1c-.82.79-1.72,1.38-2.71,1.77-.97.4-2.1.6-3.39.6-1.45,0-2.72-.26-3.8-.78-1.06-.54-1.88-1.32-2.49-2.32-.31-.56-.54-1.17-.67-1.82h18.39c.03-.31.06-.63.09-.96.03-.37.05-.68.05-.96,0-2.64-.56-4.9-1.68-6.79ZM77.67,17.64c.12-.76.34-1.44.67-2.05.51-.97,1.22-1.72,2.13-2.23.93-.55,2-.82,3.21-.82s2.26.27,3.16.82c.9.51,1.61,1.24,2.12,2.18.35.63.57,1.33.68,2.1h-11.97Z"/>
  <path class="st1" d="M66.01,13.08c-1.11-1.91-2.64-3.37-4.56-4.37-1.9-1.03-4.04-1.55-6.42-1.55s-4.69.55-6.65,1.64c-1.96,1.06-3.51,2.55-4.65,4.47-1.12,1.88-1.68,4.05-1.68,6.51s.58,4.6,1.72,6.52c1.15,1.88,2.76,3.37,4.84,4.46,2.11,1.09,4.55,1.64,7.32,1.64,2.2,0,4.14-.33,5.83-1,1.69-.7,3.09-1.69,4.21-2.96l-3.76-4.1c-.81.79-1.71,1.38-2.71,1.77-.96.4-2.09.6-3.39.6-1.44,0-2.71-.26-3.8-.78-1.05-.54-1.88-1.32-2.48-2.32-.31-.56-.54-1.17-.67-1.82h18.39c.03-.31.06-.63.09-.96.03-.37.04-.68.04-.96,0-2.64-.55-4.9-1.67-6.79ZM49.07,17.64c.12-.76.34-1.44.67-2.05.51-.97,1.22-1.72,2.12-2.23.94-.55,2.01-.82,3.21-.82s2.26.27,3.17.82c.9.51,1.61,1.24,2.12,2.18.34.63.57,1.33.68,2.1h-11.97Z"/>
</svg>