<svg xmlns="http://www.w3.org/2000/svg" fill="none" overflow="visible" preserveAspectRatio="xMidYMid meet" style="display:block" viewBox="0 0 149 40">
  <!-- Wiley W icon -->
  <path fill="#00D875" d="M3.907 6.14C8.184.868 14.96-.494 21.431.148l.03.003c5.52.53 10.976 3.624 13.422 8.685 2.28 4.786 2.738 10.772 1.934 15.996-1.146 7.366-5.299 12.763-12.74 14.534-4.55 1.03-9.96.881-14.246-1.009C3.293 35.472.244 29.048.057 22.126c-.26-5.512.264-11.575 3.85-15.985m24.719-2.577C23.576.645 14.062.713 8.885 3.37c-5.03 2.543-6.828 8.522-7.077 13.827-.257 5.856.004 13.043 4.348 17.406 2.985 2.964 7.446 3.787 11.502 3.924 3.076.063 6.32-.177 9.235-1.315 6.974-2.707 8.534-10.8 8.424-17.508v-.03c-.061-5.852-1.183-12.929-6.691-16.11m-9.075 8.628 5.389 13.192 3.967-9.934c.552-1.391.369-2.6-.446-3.047v-.158h3.89v.158c-.58.34-1.157 1.103-1.787 2.654l-6.465 16.109h-.131l-5.52-13.324-5.624 13.324h-.13L6.02 14.715c-.553-1.341-.998-1.998-1.603-2.313v-.158h5.675v.158c-.762.446-.893 1.367-.421 2.6l4.074 10.355 5.677-13.166z"/>

  <!-- WILEY text -->
  <g transform="translate(55, 10.5)">
    <path fill="#ffffff" d="M19.47 18.97h.151l6.415-16.087C26.64 1.366 27.244.607 27.847.228V.076h-3.849v.152c.83.455.982 1.669.453 3.035l-3.924 9.94L15.093 0h-.15l-5.66 13.127-4.076-10.32C4.754 1.594 4.83.684 5.66.228V.077H0v.152c.604.303 1.057.986 1.585 2.276L8.3 18.97h.151l5.585-13.355zm41.658-9.257v-5.16h5.434c2.49 0 3.396.38 4.301 1.67l.151-.077-.301-2.883H57.128v.152c.83.53 1.057 1.214 1.057 2.276v10.32c0 1.062-.226 1.82-1.057 2.276v.152h14.264l.528-3.111-.151-.076c-.906 1.214-2.038 1.897-4.453 1.897h-6.188v-6.146h4.15c1.812 0 2.642.303 3.17 1.062h.151V8.726h-.15c-.453.759-1.359 1.063-3.17 1.063h-4.15zm18.188 8.574v.152h5.207v-.152c-.83-.531-1.132-1.29-1.132-2.58v-3.566l4.603-6.602c.83-1.214 1.51-1.973 2.114-2.2v-.152h-4.076v.152c.755.455.83 1.441.076 2.58l-3.396 4.856-3.623-5.463c-.603-.835-.453-1.594.227-1.973v-.152H73.58v.152c.68.303 1.132.683 1.811 1.745l5.057 7.284v3.34c.075 1.29-.227 2.048-1.132 2.58m-25.206.152.754-3.187-.15-.076c-.906 1.366-2.264 1.973-4.227 1.973h-5.886V5.919c0-1.29.302-2.05 1.207-2.58v-.152h-5.207v.152c.83.53 1.057 1.214 1.057 2.276v10.32c0 1.062-.227 1.82-1.057 2.276v.152H54.11zm-23.018-2.58c0 1.214-.226 1.973-1.132 2.428v.152h5.208v-.152c-.83-.455-1.132-1.214-1.132-2.428V5.767c0-1.138.226-1.897 1.132-2.428v-.152h-5.132v.152c.83.53 1.132 1.29 1.132 2.428v10.092z"/>
  </g>
</svg>